# Blender 3.3.0
# www.blender.org
mtllib basetablewood.mtl
o Cube
v 4.983873 3.676451 -1.978253
v 4.983873 0.504233 -1.978253
v 4.983873 3.676451 1.978253
v 4.983873 0.504233 1.978253
v -4.983873 3.676451 -1.978253
v -4.983873 0.504233 -1.978253
v -4.983873 3.676451 1.978253
v -4.983873 0.504233 1.978253
v 0.000000 0.504233 -1.978253
v 0.000000 3.676451 1.978253
v 0.000000 0.504233 1.978253
v 0.000000 3.676451 -1.978253
v 4.543357 3.536258 -1.978253
v 4.543357 0.644427 -1.978253
v 4.543357 3.536258 1.978253
v 4.543357 0.644427 1.978253
v -4.543357 3.536258 -1.978253
v -4.543357 0.644427 -1.978253
v -4.543357 3.536258 1.978253
v -4.543357 0.644427 1.978253
v -0.278607 0.681566 -1.978253
v -0.278607 3.499119 1.978253
v -0.278607 0.681566 1.978253
v -0.278607 3.499119 -1.978253
vn 0.1163 0.7309 -0.6725
vn -0.2410 0.7572 -0.6071
vn -0.2410 0.7572 0.6071
vn 0.1163 0.7309 0.6725
vn -0.2410 -0.7572 0.6071
vn -0.2410 -0.7572 -0.6071
vn 0.1163 -0.7309 -0.6725
vn 0.2410 -0.7572 -0.6071
vn 0.2410 -0.7572 0.6071
vn 0.1163 -0.7309 0.6725
vn 0.2410 0.7572 -0.6071
vn 0.2410 0.7572 0.6071
vn -0.0893 -0.5596 -0.8240
vn -0.0893 -0.5596 0.8240
vn 0.1174 -0.3792 0.9178
vn 0.1174 -0.3792 -0.9178
vn 0.1174 0.3792 0.9178
vn 0.1174 0.3792 -0.9178
vn -0.0893 0.5596 -0.8240
vn -0.0893 0.5596 0.8240
vn -0.1179 0.3795 0.9177
vn -0.1179 0.3795 -0.9177
vn -0.1179 -0.3795 0.9177
vn -0.1179 -0.3795 -0.9177
vt 0.400000 0.800000
vt 0.800000 0.400000
vt 0.400000 0.400000
vt 0.800000 0.400000
vt 0.000000 0.800000
vt 0.800000 0.800000
vt 0.000000 0.400000
vt 0.800000 0.800000
vt 0.000000 0.400000
vt 0.600000 0.400000
vt 0.800000 0.000000
vt 0.000000 0.000000
vt 0.400000 0.400000
vt 0.600000 0.800000
vt 0.400000 0.000000
vt 0.800000 0.400000
vt 1.000000 0.000000
vt 0.600000 0.400000
vt 0.800000 0.000000
vt 0.400000 0.800000
vt 1.000000 0.800000
vt 0.400000 0.400000
vt 0.600000 0.800000
vt 1.000000 0.400000
vt 0.400000 0.000000
vt 1.000000 0.400000
vt 0.400000 0.400000
vt 0.800000 0.400000
vt 0.400000 0.800000
vt 0.800000 0.400000
vt 0.400000 0.400000
vt 0.800000 0.400000
vt 0.000000 0.800000
vt 0.800000 0.800000
vt 0.000000 0.400000
vt 0.800000 0.800000
vt 0.000000 0.400000
vt 0.600000 0.400000
vt 0.800000 0.000000
vt 0.000000 0.000000
vt 0.400000 0.400000
vt 0.600000 0.800000
vt 0.400000 0.000000
vt 0.800000 0.400000
vt 1.000000 0.000000
vt 0.600000 0.400000
vt 0.800000 0.000000
vt 0.400000 0.800000
vt 1.000000 0.800000
vt 0.400000 0.400000
vt 0.600000 0.800000
vt 1.000000 0.400000
vt 0.400000 0.000000
vt 1.000000 0.400000
vt 0.400000 0.400000
vt 0.800000 0.400000
s 1
usemtl Material
f 12/27/1 5/10/2 7/14/3 10/20/4
f 8/15/5 7/13/3 5/9/2 6/12/6
f 9/18/7 2/4/8 4/8/9 11/23/10
f 2/3/8 1/1/11 3/5/12 4/7/9
f 6/11/6 9/17/7 11/24/10 8/16/5
f 11/25/10 9/19/7 12/28/1 10/22/4
f 1/2/11 12/26/1 10/21/4 3/6/12
f 24/55/13 22/48/14 19/42/15 17/38/16
f 20/43/17 18/40/18 17/37/16 19/41/15
f 21/46/19 23/51/20 16/36/21 14/32/22
f 14/31/22 16/35/21 15/33/23 13/29/24
f 18/39/18 20/44/17 23/52/20 21/45/19
f 23/53/20 22/50/14 24/56/13 21/47/19
f 13/30/24 15/34/23 22/49/14 24/54/13
f 9/17/7 6/11/6 18/39/18 21/45/19
f 1/1/11 2/3/8 14/31/22 13/29/24
f 7/13/3 8/15/5 20/43/17 19/41/15
f 4/7/9 3/5/12 15/33/23 16/35/21
f 6/12/6 5/9/2 17/37/16 18/40/18
f 10/20/4 7/14/3 19/42/15 22/48/14
f 11/23/10 4/8/9 16/36/21 23/51/20
f 12/26/1 1/2/11 13/30/24 24/54/13
f 2/4/8 9/18/7 21/46/19 14/32/22
f 3/6/12 10/21/4 22/49/14 15/34/23
f 8/16/5 11/24/10 23/52/20 20/44/17
f 5/10/2 12/27/1 24/55/13 17/38/16
f 11/25/10 10/22/4 22/50/14 23/53/20
f 12/28/1 9/19/7 21/47/19 24/56/13
o Cube.001
v 4.269521 0.001159 -1.918237
v 4.269521 0.498595 -1.918237
v 4.269521 0.001159 1.928774
v 4.269521 0.498595 1.928774
v 4.010506 0.001159 -1.918237
v 4.010506 0.498595 -1.918237
v 4.010506 0.001159 1.928774
v 4.010506 0.498595 1.928774
v -3.992680 0.001159 -1.918237
v -3.992680 0.498595 -1.918237
v -3.992680 0.001159 1.928774
v -3.992680 0.498595 1.928774
v -4.251695 0.001159 -1.918237
v -4.251695 0.498595 -1.918237
v -4.251695 0.001159 1.928774
v -4.251695 0.498595 1.928774
v 4.067202 0.311997 -1.652280
v 4.067202 0.516898 -1.652280
v 4.067202 0.311997 1.662818
v 4.067202 0.516898 1.662818
v -4.036010 0.311997 -1.652280
v -4.036010 0.516898 -1.652280
v -4.036010 0.311997 1.662818
v -4.036010 0.516898 1.662818
vn -1.0000 -0.0000 -0.0000
vn -0.0000 -0.0000 -1.0000
vn 1.0000 -0.0000 -0.0000
vn -0.0000 -0.0000 1.0000
vn -0.0000 1.0000 -0.0000
vn -0.0000 -1.0000 -0.0000
vt 0.375000 0.000000
vt 0.375000 1.000000
vt 0.125000 0.750000
vt 0.625000 0.000000
vt 0.625000 1.000000
vt 0.875000 0.750000
vt 0.375000 0.250000
vt 0.125000 0.500000
vt 0.625000 0.250000
vt 0.875000 0.500000
vt 0.375000 0.750000
vt 0.625000 0.750000
vt 0.375000 0.500000
vt 0.625000 0.500000
vt 0.375000 0.000000
vt 0.375000 1.000000
vt 0.125000 0.750000
vt 0.625000 0.000000
vt 0.625000 1.000000
vt 0.875000 0.750000
vt 0.375000 0.250000
vt 0.125000 0.500000
vt 0.625000 0.250000
vt 0.875000 0.500000
vt 0.375000 0.750000
vt 0.625000 0.750000
vt 0.375000 0.500000
vt 0.625000 0.500000
vt 0.375000 0.000000
vt 0.375000 1.000000
vt 0.125000 0.750000
vt 0.625000 0.000000
vt 0.625000 1.000000
vt 0.875000 0.750000
vt 0.375000 0.250000
vt 0.125000 0.500000
vt 0.625000 0.250000
vt 0.875000 0.500000
vt 0.375000 0.750000
vt 0.625000 0.750000
vt 0.375000 0.500000
vt 0.625000 0.500000
s 0
f 25/57/25 27/63/25 28/65/25 26/60/25
f 27/63/26 31/69/26 32/70/26 28/65/26
f 31/69/27 29/67/27 30/68/27 32/70/27
f 29/67/28 25/58/28 26/61/28 30/68/28
f 27/64/29 25/59/29 29/67/29 31/69/29
f 32/70/30 30/68/30 26/62/30 28/66/30
f 33/71/25 35/77/25 36/79/25 34/74/25
f 35/77/26 39/83/26 40/84/26 36/79/26
f 39/83/27 37/81/27 38/82/27 40/84/27
f 37/81/28 33/72/28 34/75/28 38/82/28
f 35/78/29 33/73/29 37/81/29 39/83/29
f 40/84/30 38/82/30 34/76/30 36/80/30
f 41/85/25 43/91/25 44/93/25 42/88/25
f 43/91/26 47/97/26 48/98/26 44/93/26
f 47/97/27 45/95/27 46/96/27 48/98/27
f 45/95/28 41/86/28 42/89/28 46/96/28
f 43/92/29 41/87/29 45/95/29 47/97/29
f 48/98/30 46/96/30 42/90/30 44/94/30
